<svg width="26" height="26" viewBox="0 0 26 26" fill="none" xmlns="http://www.w3.org/2000/svg">
<path d="M13 26C20.1797 26 26 20.1797 26 13C26 5.8203 20.1797 0 13 0C5.8203 0 0 5.8203 0 13C0 20.1797 5.8203 26 13 26Z" fill="#244909"/>
<path d="M6.42149 14.9171C6.07669 12.501 6 6.91382 6 6.91382C13.6206 7.08922 16.65 12.0197 16.65 12.0197C19.8451 17.1375 14.4244 19.9718 14.4244 19.9718C8.01694 20.2908 6.84228 17.8657 6.42149 14.9171Z" fill="url(#paint0_linear_54_70)" stroke="white"/>
<path d="M20.0477 16.3721C20.2719 14.6611 20.3218 10.7046 20.3218 10.7046C15.3656 10.8288 13.3954 14.3203 13.3954 14.3203C11.3174 17.9444 14.8428 19.9515 14.8428 19.9515C19.01 20.1774 19.774 18.4601 20.0477 16.3721Z" fill="#AFCC17" stroke="white"/>
<defs>
<linearGradient id="paint0_linear_54_70" x1="12.2504" y1="8.1775" x2="12.2504" y2="19.9844" gradientUnits="userSpaceOnUse">
<stop stop-color="#94B61B"/>
<stop offset="1" stop-color="#659100"/>
</linearGradient>
</defs>
</svg>
