<svg preserveAspectRatio="none" width="100%" height="100%" overflow="visible" style="display: block;" viewBox="0 0 18 18" fill="none" xmlns="http://www.w3.org/2000/svg">
<g id="JarIcon" clip-path="url(#clip0_18_3)">
<path id="Vector" d="M9 17.25C13.5563 17.25 17.25 13.5563 17.25 9C17.25 4.44365 13.5563 0.75 9 0.75C4.44365 0.75 0.75 4.44365 0.75 9C0.75 13.5563 4.44365 17.25 9 17.25Z" fill="var(--fill-0, #1C0E04)" fill-opacity="0.12"/>
<path id="Vector_2" d="M6 7.5H12V12.75C12 13.1478 11.842 13.5294 11.5607 13.8107C11.2794 14.092 10.8978 14.25 10.5 14.25H7.5C7.10218 14.25 6.72064 14.092 6.43934 13.8107C6.15804 13.5294 6 13.1478 6 12.75V7.5Z" fill="var(--fill-0, #1C0E04)" fill-opacity="0.7"/>
<path id="Vector_3" d="M12 6H6C5.58579 6 5.25 6.33579 5.25 6.75V7.125C5.25 7.53921 5.58579 7.875 6 7.875H12C12.4142 7.875 12.75 7.53921 12.75 7.125V6.75C12.75 6.33579 12.4142 6 12 6Z" fill="var(--fill-0, #1C0E04)" fill-opacity="0.7"/>
<path id="Vector_4" d="M7.5 9.75H10.5" stroke="var(--stroke-0, #F5A623)" stroke-width="0.9" stroke-linecap="round"/>
</g>
<defs>
<clipPath id="clip0_18_3">
<rect width="18" height="18" fill="white"/>
</clipPath>
</defs>
</svg>
